<?xml version="1.0" standalone="no"?><!DOCTYPE svg PUBLIC "-//W3C//DTD SVG 1.1//EN" "http://www.w3.org/Graphics/SVG/1.1/DTD/svg11.dtd"><svg width="100%" height="100%" viewBox="0 0 205 201" version="1.1" xmlns="http://www.w3.org/2000/svg" xmlns:xlink="http://www.w3.org/1999/xlink" xml:space="preserve" style="fill-rule:evenodd;clip-rule:evenodd;stroke-linejoin:round;stroke-miterlimit:1.41421;"><path id="calendar-5-icon" d="M73.247,120.116l-29.261,0l0,-29.261l29.261,0l0,29.261ZM117.458,90.855l-29.261,0l0,29.261l29.261,0l0,-29.261ZM161.669,90.855l-29.261,0l0,29.261l29.261,0l0,-29.261ZM73.247,133.575l-29.261,0l0,29.262l29.261,0l0,-29.262ZM117.458,133.575l-29.261,0l0,29.262l29.261,0l0,-29.262ZM161.668,133.575l-29.26,0l0,29.262l29.26,0l0,-29.262ZM172.566,31.783c0,4.985 -4.041,9.027 -9.026,9.027c-4.985,0 -9.026,-4.042 -9.026,-9.027l0,-22.716c0,-4.984 4.041,-9.026 9.026,-9.026c4.985,0 9.026,4.042 9.026,9.026l0,22.716ZM50.614,9.026c0,-4.984 -4.042,-9.026 -9.026,-9.026c-4.986,0 -9.027,4.042 -9.027,9.026l0,22.716c0,4.985 4.041,9.026 9.027,9.026c4.984,0 9.026,-4.041 9.026,-9.026l0,-22.716ZM183.476,22.206l0,9.247c0,10.993 -8.943,19.937 -19.936,19.937c-10.993,0 -19.937,-8.944 -19.937,-19.937l0,-9.247l-82.079,0l0,9.206c0,10.993 -8.944,19.937 -19.936,19.937c-10.994,0 -19.937,-8.944 -19.937,-19.937l0,-9.206l-21.651,0l0,178.334l204.662,0l0,-178.334l-21.186,0ZM184.792,180.67l-164.922,0l0,-110.513l164.922,0l0,110.513Z"/></svg>
