<?xml version="1.0" encoding="iso-8859-1"?>
<!-- Generator: Adobe Illustrator 19.0.0, SVG Export Plug-In . SVG Version: 6.00 Build 0)  -->
<svg version="1.1" id="Capa_1" xmlns="http://www.w3.org/2000/svg" xmlns:xlink="http://www.w3.org/1999/xlink" x="0px" y="0px"
	 viewBox="0 0 512 512" style="enable-background:new 0 0 512 512;" xml:space="preserve">
<g>
	<g>
		<path d="M458.421,289.814h-12.909c12.007-12.152,19.435-28.837,19.435-47.229v-15.672c0-0.385,0-8.109,0-8.109
			c0-37.076-30.164-67.24-67.24-67.24s-67.24,30.164-67.24,67.24v14.607l-45.552-57.533c-5.828-7.362-15.327-10.122-24.19-7.039
			c-1.697,0.59-3.276,1.365-4.725,2.294c-1.449-0.929-3.028-1.704-4.725-2.294c-8.866-3.085-18.362-0.322-24.188,7.035
			l-25.339,31.972c-5.61-43.154-42.603-76.594-87.262-76.594c-48.523,0-88,39.477-88,88v77.956C10.655,306.529,0,323.741,0,343.405
			v158.595c0,5.522,4.478,10,10,10h166.745c2.652,0,5.196-1.054,7.071-2.93c1.876-1.875,2.929-4.419,2.929-7.071l-0.017-131.456
			L256,248.316l16.695,29.457c2.725,4.807,8.829,6.49,13.631,3.77c4.805-2.724,6.492-8.826,3.77-13.631l-23.74-41.888
			c-0.148-0.263-0.228-0.561-0.228-0.861v-35.789c0-0.371,0-1.238,1.17-1.645c1.166-0.407,1.708,0.273,1.938,0.564l72.726,91.855
			c1.917,2.835,4.051,5.51,6.366,8.016c0.28,0.336,0.579,0.645,0.891,0.935c3.394,3.537,7.161,6.71,11.251,9.442
			c0.096,0.783,0.275,1.567,0.567,2.337l27.325,72.101c1.465,3.866,5.158,6.432,9.292,6.456c0.02,0,0.039,0,0.059,0
			c4.111,0,7.806-2.517,9.309-6.348l24.827-63.271h26.572c18.516,0,33.579,15.063,33.579,33.579v148.595h-21.85l-0.007-128.431
			c0-5.522-4.478-9.999-10.001-9.999c-5.522,0-9.999,4.478-9.999,10.001l0.007,128.44H345.255l0.016-124.092
			c0-1.729-0.447-3.428-1.3-4.932l-19.98-35.255c-2.723-4.806-8.827-6.489-13.631-3.77c-4.805,2.724-6.492,8.826-3.77,13.631
			l18.681,32.96c0,0-0.017,130.318-0.017,131.457c0,5.522,4.478,10,10,10L502,511.988c5.522,0,10-4.478,10-10V343.394
			C512,313.85,487.965,289.814,458.421,289.814z M46.487,219.251c0-37.495,30.505-68,68.001-68c37.495,0,67.999,30.504,67.999,68
			v12.898l-10.172,12.835v-27.986c0-5.523-4.478-10-10-10H66.66c-5.522,0-10,4.477-10,10v34.999
			c0,14.456,5.344,27.679,14.145,37.828H53.579c-2.405,0-4.77,0.175-7.092,0.484V219.251z M114.487,289.827
			c-20.858,0-37.827-16.97-37.827-37.828v-24.999h75.655v24.999C152.315,272.856,135.345,289.827,114.487,289.827z M127.747,308.274
			l-13.263,33.787l-12.649-32.235h12.458c0.022,0,0.043-0.003,0.065-0.003c0.043,0,0.086,0.003,0.129,0.003
			C119.05,309.826,123.486,309.277,127.747,308.274z M245.874,225.163h-0.001c0,0.3-0.079,0.598-0.227,0.859l-77.618,136.955
			c-0.853,1.504-1.3,3.203-1.3,4.932l0.016,124.092H61.849l0.005-80.13c0-5.523-4.477-10.001-9.999-10.001c-0.001,0-0.001,0-0.001,0
			c-5.522,0-10,4.477-10,9.999l-0.005,80.132H20V343.405c0-13.484,7.994-25.131,19.487-30.468c0.634-0.199,1.24-0.461,1.812-0.776
			c3.806-1.501,7.946-2.335,12.28-2.335h26.772l24.823,63.26c1.502,3.829,5.195,6.348,9.308,6.348c0.001,0,0.001,0,0.001,0
			c4.112,0,7.806-2.518,9.309-6.346l26.971-68.707l48.403-61.075c0.85-0.765,1.576-1.666,2.124-2.68l41.476-52.334
			c0.23-0.291,0.772-0.972,1.938-0.563c1.17,0.407,1.17,1.274,1.17,1.645V225.163z M397.707,171.564
			c24.526,0,44.748,18.788,47.026,42.728l-6.571-0.227c-6.452-0.223-11.506-5.454-11.506-11.911c0-4.205-2.631-7.961-6.583-9.398
			c-3.953-1.438-8.381-0.248-11.082,2.975c-10.075,12.023-24.851,18.919-40.537,18.919h-17.807
			C352.758,190.54,373.058,171.564,397.707,171.564z M397.875,341.644l-12.496-32.97c4,0.745,8.116,1.152,12.328,1.152
			c0.155,0,0.307-0.011,0.462-0.012h12.196L397.875,341.644z M444.948,242.586c0,25.894-20.942,46.979-46.778,47.229h-0.462
			c-0.052,0-0.103,0.007-0.154,0.008c-13.43-0.043-25.55-5.725-34.133-14.791l-5.229-6.604c-4.878-7.432-7.725-16.309-7.725-25.842
			v-7.935h17.987c15.943,0,31.202-5.168,43.686-14.528c5.52,8.138,14.721,13.564,25.332,13.931l7.476,0.258V242.586z"/>
	</g>
</g>
<g>
	<g>
		<path d="M305.78,296.329c-1.86-1.87-4.44-2.931-7.07-2.931s-5.21,1.061-7.07,2.931c-1.859,1.859-2.93,4.43-2.93,7.069
			c0,2.631,1.07,5.21,2.93,7.07c1.86,1.86,4.44,2.93,7.07,2.93s5.21-1.069,7.07-2.93c1.86-1.869,2.93-4.439,2.93-7.07
			C308.71,300.769,307.64,298.189,305.78,296.329z"/>
	</g>
</g>
<g>
	<g>
		<path d="M58.929,362.359c-1.869-1.86-4.439-2.93-7.07-2.93c-2.64,0-5.21,1.07-7.079,2.93c-1.86,1.86-2.921,4.44-2.921,7.07
			c0,2.64,1.061,5.21,2.921,7.07c1.869,1.87,4.439,2.93,7.079,2.93c2.631,0,5.2-1.06,7.07-2.93c1.86-1.86,2.93-4.44,2.93-7.07
			S60.79,364.229,58.929,362.359z"/>
	</g>
</g>
<g>
	<g>
		<path d="M287.052,0.001c-11.196,0-22.103,3.711-31.065,10.399c-8.963-6.688-19.869-10.399-31.065-10.399
			c-29.095,0-52.765,24.309-52.765,54.188c0,17.27,13.096,38.078,40.036,63.61c18.74,17.761,37.194,31.029,37.971,31.585
			c1.741,1.247,3.782,1.87,5.823,1.87s4.082-0.624,5.823-1.87c0.776-0.556,19.23-13.824,37.971-31.585
			c26.939-25.533,40.035-46.34,40.035-63.61C339.816,24.31,316.146,0.001,287.052,0.001z M255.984,128.835
			c-26.837-20.267-63.827-54.957-63.827-74.646c0-18.852,14.698-34.188,32.765-34.188c9.031,0,17.444,3.756,23.69,10.577
			c1.895,2.068,4.57,3.246,7.375,3.246s5.48-1.178,7.375-3.246c6.246-6.82,14.659-10.577,23.69-10.577
			c18.066,0,32.764,15.336,32.764,34.188C319.816,73.85,282.822,108.555,255.984,128.835z"/>
	</g>
</g>
<g>
	<g>
		<path d="M413.429,259.098c-3.906-3.904-10.236-3.904-14.143,0c-0.932,0.932-2.445,0.932-3.377,0
			c-3.906-3.904-10.236-3.904-14.143,0c-3.905,3.905-3.905,10.237,0,14.143c4.366,4.364,10.098,6.547,15.832,6.547
			c5.733,0,11.466-2.183,15.831-6.547C417.334,269.337,417.334,263.004,413.429,259.098z"/>
	</g>
</g>
<g>
	<g>
		<path d="M130.318,259.098c-3.906-3.904-10.236-3.904-14.143,0c-0.932,0.932-2.445,0.932-3.377,0
			c-3.906-3.904-10.236-3.904-14.143,0c-3.905,3.905-3.905,10.237,0,14.143c4.366,4.364,10.099,6.547,15.832,6.547
			c5.733,0,11.466-2.183,15.831-6.547C134.223,269.337,134.223,263.004,130.318,259.098z"/>
	</g>
</g>
<g>
</g>
<g>
</g>
<g>
</g>
<g>
</g>
<g>
</g>
<g>
</g>
<g>
</g>
<g>
</g>
<g>
</g>
<g>
</g>
<g>
</g>
<g>
</g>
<g>
</g>
<g>
</g>
<g>
</g>
</svg>
